<?xml version="1.0" standalone="no"?>
<!DOCTYPE svg PUBLIC "-//W3C//DTD SVG 20010904//EN"
 "http://www.w3.org/TR/2001/REC-SVG-20010904/DTD/svg10.dtd">
<svg version="1.0" xmlns="http://www.w3.org/2000/svg"
 width="512.000000pt" height="512.000000pt" viewBox="0 0 512.000000 512.000000"
 preserveAspectRatio="xMidYMid meet">
<metadata>
Created by potrace 1.14, written by Peter Selinger 2001-2017
</metadata>
<g transform="translate(0.000000,512.000000) scale(0.100000,-0.100000)"
fill="#000000" stroke="none">
<path d="M0 2560 l0 -2560 2560 0 2560 0 0 2560 0 2560 -2560 0 -2560 0 0
-2560z m1624 2007 c106 -50 216 -160 268 -267 l37 -75 0 193 1 192 545 0 c300
0 545 -3 545 -7 0 -15 150 -628 158 -648 6 -14 32 76 93 318 l84 337 180 0
180 0 84 -335 c46 -185 86 -334 88 -331 3 3 38 153 77 333 l71 328 173 3 172
2 0 -170 0 -170 -125 -457 c-69 -252 -128 -466 -131 -475 -5 -16 5 -18 110
-18 l116 0 0 -165 0 -165 -172 -2 -173 -3 -3 -480 -2 -480 90 -28 c49 -15 115
-38 145 -52 l55 -24 -26 -68 c-14 -37 -42 -112 -62 -166 -28 -73 -41 -97 -52
-93 -8 3 -60 21 -115 40 -85 30 -113 36 -186 36 -104 0 -133 -16 -133 -73 0
-67 35 -88 208 -122 69 -14 149 -34 177 -46 163 -64 249 -199 249 -389 0 -248
-171 -448 -436 -511 -74 -17 -110 -20 -209 -16 -131 5 -200 21 -317 71 -43 19
-78 31 -78 27 0 -3 9 -17 20 -31 11 -14 20 -28 20 -32 0 -5 -132 -8 -292 -8
l-293 1 -149 274 c-81 152 -152 278 -157 281 -5 3 -9 -114 -9 -275 l0 -281
-855 0 -855 0 0 725 0 725 170 0 170 0 0 283 0 282 -170 263 -170 264 0 764 0
765 403 -3 402 -3 79 -38z"/>
<path d="M2290 4225 l0 -85 170 0 170 0 0 -160 0 -160 -170 0 -170 0 0 -85 0
-85 233 -2 232 -3 3 -162 2 -163 -163 -2 -163 -3 190 -335 191 -335 3 338 2
337 48 0 c27 0 51 2 54 5 3 3 -1 32 -8 63 -8 31 -57 242 -109 467 -53 226 -98
420 -102 433 -5 22 -6 22 -209 22 l-204 0 0 -85z"/>
<path d="M1170 3974 l0 -287 80 5 c163 9 242 102 243 283 1 181 -91 285 -251
285 l-72 0 0 -286z"/>
<path d="M3461 3713 c-41 -192 -76 -358 -79 -370 l-4 -23 166 0 c102 0 166 4
166 10 0 5 -20 96 -44 202 -24 106 -61 268 -82 361 -21 92 -41 167 -44 167 -3
0 -38 -156 -79 -347z"/>
<path d="M1912 3697 c-23 -65 -111 -185 -170 -234 -62 -50 -167 -103 -247
-123 -27 -7 -119 -16 -203 -19 l-153 -6 87 -177 c49 -98 91 -178 94 -178 3 1
44 82 92 180 l87 180 211 0 c162 0 212 3 216 13 2 7 3 100 2 207 -3 178 -4
192 -16 157z"/>
<path d="M1926 3128 c-8 -13 -96 -149 -195 -303 l-181 -279 2 -276 3 -275 108
-3 107 -3 0 -179 0 -180 -265 0 -265 0 0 -95 0 -95 225 0 225 0 0 -175 0 -175
-225 0 -225 0 -2 -67 c-1 -38 -2 -81 -2 -98 l-1 -30 358 -3 357 -2 0 1130 c0
621 -2 1130 -5 1130 -2 0 -11 -10 -19 -22z"/>
<path d="M3290 2460 l0 -520 -137 0 -136 0 56 -40 c66 -48 108 -105 134 -182
l19 -55 27 58 c51 109 160 206 290 259 l57 24 0 488 0 488 -155 0 -155 0 0
-520z"/>
<path d="M2420 2307 l0 -317 181 0 c151 0 180 2 176 14 -6 15 -346 608 -353
615 -2 2 -4 -138 -4 -312z"/>
<path d="M2450 1510 l0 -150 78 0 c91 0 135 18 170 70 20 29 23 45 20 92 -7
98 -63 138 -193 138 l-75 0 0 -150z"/>
<path d="M3195 1399 c-44 -84 -111 -142 -212 -184 -32 -13 -58 -30 -57 -37 2
-26 268 -399 274 -386 4 7 24 69 45 138 21 69 41 128 45 133 3 4 24 -7 46 -24
130 -105 236 -149 361 -149 118 0 173 36 173 112 0 51 -29 68 -167 97 -300 62
-413 131 -473 289 l-18 46 -17 -35z"/>
</g>
</svg>
